<?xml version="1.0" encoding="iso-8859-1"?>
<!-- Generator: Adobe Illustrator 16.0.0, SVG Export Plug-In . SVG Version: 6.00 Build 0)  -->
<!DOCTYPE svg PUBLIC "-//W3C//DTD SVG 1.1//EN" "http://www.w3.org/Graphics/SVG/1.1/DTD/svg11.dtd">
<svg version="1.1" id="Capa_1" xmlns="http://www.w3.org/2000/svg" xmlns:xlink="http://www.w3.org/1999/xlink" x="0px" y="0px"
	 width="139.558px" height="139.558px" viewBox="0 0 139.558 139.558" style="enable-background:new 0 0 139.558 139.558;"
	 xml:space="preserve">
<g>
	<g>
		<path d="M54.19,65.705c29.938,0,54.19-9.703,54.19-21.681V22.344c0-11.977-24.265-21.68-54.19-21.68
			C24.263,0.664,0,10.367,0,22.344v21.681C0,56.002,24.256,65.705,54.19,65.705z M54.19,6.089c29.773,0,48.771,9.627,48.771,16.255
			c0,6.628-18.998,16.262-48.771,16.262c-29.772,0-48.771-9.627-48.771-16.255C5.419,15.722,24.418,6.089,54.19,6.089z"/>
		<path d="M54.19,98.225c6.467,0,12.638-0.476,18.39-1.304c4.643-15.381,18.928-26.609,35.801-26.609V54.866
			c0,11.971-24.265,21.681-54.19,21.681C24.263,76.547,0,66.844,0,54.866v21.681C0,88.518,24.256,98.225,54.19,98.225z"/>
		<path d="M54.19,109.057c-29.934,0-54.19-9.7-54.19-21.678v21.678c0,11.978,24.263,21.684,54.19,21.684
			c8.306,0,16.148-0.779,23.19-2.107c-3.997-5.906-6.342-13.006-6.394-20.648C65.696,108.673,60.058,109.057,54.19,109.057z"/>
		<path d="M108.381,76.541c-17.214,0-31.176,13.962-31.176,31.176c0,17.215,13.962,31.177,31.176,31.177
			s31.177-13.962,31.177-31.177C139.558,90.503,125.595,76.541,108.381,76.541z M123.97,112.394h-10.912v10.911h-9.353v-10.911
			H92.793v-9.353h10.912V92.129h9.353v10.912h10.912V112.394z"/>
	</g>
</g>
<g>
</g>
<g>
</g>
<g>
</g>
<g>
</g>
<g>
</g>
<g>
</g>
<g>
</g>
<g>
</g>
<g>
</g>
<g>
</g>
<g>
</g>
<g>
</g>
<g>
</g>
<g>
</g>
<g>
</g>
</svg>
