<?xml version="1.0" standalone="no"?>
<!DOCTYPE svg PUBLIC "-//W3C//DTD SVG 20010904//EN"
 "http://www.w3.org/TR/2001/REC-SVG-20010904/DTD/svg10.dtd">
<svg version="1.0" xmlns="http://www.w3.org/2000/svg"
 width="1280.000000pt" height="720.000000pt" viewBox="0 0 1280.000000 720.000000"
 preserveAspectRatio="xMidYMid meet">
<metadata>
Created by potrace 1.15, written by Peter Selinger 2001-2017
</metadata>
<g transform="translate(0.000000,720.000000) scale(0.100000,-0.100000)"
fill="#000000" stroke="none">
<path d="M6169 6226 c-2 -2 -51 -7 -109 -10 -439 -29 -987 -166 -1450 -363
-519 -221 -1027 -554 -1389 -911 -82 -81 -102 -107 -120 -157 -60 -160 18
-347 181 -436 59 -32 69 -34 158 -34 86 0 100 3 147 29 29 16 92 65 140 110
395 364 836 637 1336 825 152 57 374 124 497 151 372 81 500 94 900 95 309 0
362 -2 510 -23 303 -43 520 -95 805 -193 512 -175 1010 -472 1409 -841 137
-126 188 -152 301 -153 71 0 88 4 147 33 71 35 141 103 174 169 15 31 19 60
19 153 0 144 -7 159 -128 278 -328 322 -794 638 -1252 849 -504 232 -1051 376
-1610 423 -113 9 -657 14 -666 6z"/>
<path d="M6195 4939 c-787 -66 -1561 -412 -2102 -941 -111 -108 -128 -145
-128 -273 0 -89 3 -105 27 -150 36 -67 107 -139 171 -172 40 -20 71 -27 132
-31 121 -6 169 16 297 134 123 114 297 247 428 329 224 139 526 268 760 325
47 11 101 25 120 30 19 5 100 19 180 32 207 32 550 32 762 0 561 -86 1063
-325 1473 -702 131 -120 182 -145 295 -145 72 0 93 4 141 28 63 30 146 112
178 174 46 91 43 224 -6 315 -50 92 -339 338 -576 492 -467 302 -966 482
-1522 546 -126 15 -499 20 -630 9z"/>
<path d="M6230 3653 c-103 -11 -321 -60 -439 -99 -316 -106 -596 -274 -819
-493 -118 -116 -137 -154 -136 -271 1 -69 6 -96 26 -140 53 -115 155 -197 273
-220 51 -10 71 -9 124 5 78 20 127 50 211 130 271 257 616 395 989 395 387 0
722 -136 1017 -412 100 -93 146 -113 264 -113 105 0 160 24 239 103 77 78 106
145 106 252 0 118 -27 171 -145 283 -330 315 -769 520 -1230 577 -78 9 -399
12 -480 3z"/>
<path d="M6270 2447 c-135 -37 -242 -101 -342 -204 -226 -234 -276 -555 -132
-852 40 -82 60 -108 138 -186 103 -102 185 -154 301 -191 97 -31 258 -43 358
-25 241 42 470 233 565 471 107 270 39 583 -172 790 -78 77 -183 143 -285 181
-77 29 -99 32 -216 36 -112 3 -142 0 -215 -20z"/>
</g>
</svg>
